<?xml version="1.0" encoding="UTF-8" standalone="no"?>
<!-- Created with Inkscape (http://www.inkscape.org/) -->

<svg
   width="661.45831mm"
   height="793.75mm"
   id="svg27450"
   version="1.1"
   inkscape:version="1.4.2 (ebf0e940d0, 2025-05-08)"
   sodipodi:docname="Tux.svg"
   inkscape:export-filename="./tux-large.png"
   inkscape:export-xdpi="300"
   inkscape:export-ydpi="300"
   viewBox="0 0 2343.7733 2812.5281"
   xmlns:inkscape="http://www.inkscape.org/namespaces/inkscape"
   xmlns:sodipodi="http://sodipodi.sourceforge.net/DTD/sodipodi-0.dtd"
   xmlns:xlink="http://www.w3.org/1999/xlink"
   xmlns="http://www.w3.org/2000/svg"
   xmlns:svg="http://www.w3.org/2000/svg"
   xmlns:rdf="http://www.w3.org/1999/02/22-rdf-syntax-ns#"
   xmlns:cc="http://creativecommons.org/ns#"
   xmlns:dc="http://purl.org/dc/elements/1.1/">
  <title
     id="title20046">Tux</title>
  <sodipodi:namedview
     id="base"
     pagecolor="#ffffff"
     bordercolor="#666666"
     borderopacity="0.41176471"
     inkscape:pageopacity="0.0"
     inkscape:pageshadow="2"
     inkscape:zoom="0.25"
     inkscape:cx="520"
     inkscape:cy="-36"
     inkscape:document-units="mm"
     inkscape:current-layer="layer4"
     showgrid="false"
     inkscape:window-width="1920"
     inkscape:window-height="1017"
     inkscape:window-x="0"
     inkscape:window-y="0"
     inkscape:window-maximized="1"
     fit-margin-top="0"
     fit-margin-left="0"
     fit-margin-right="0"
     fit-margin-bottom="0"
     showguides="true"
     inkscape:guide-bbox="true"
     inkscape:showpageshadow="false"
     showborder="true"
     inkscape:snap-intersection-paths="false"
     inkscape:object-paths="true"
     inkscape:object-nodes="false"
     inkscape:snap-smooth-nodes="false"
     inkscape:snap-nodes="true"
     inkscape:pagecheckerboard="0"
     inkscape:deskcolor="#d1d1d1" />
  <defs
     id="defs27452">
    <linearGradient
       id="linearGradient28799-4">
      <stop
         id="stop28801-13"
         offset="0"
         style="stop-color:#fefefc;stop-opacity:1;" />
      <stop
         style="stop-color:#fefefc;stop-opacity:1"
         offset="0.75733864"
         id="stop28807-8" />
      <stop
         id="stop28803-8"
         offset="1"
         style="stop-color:#d4d4d4;stop-opacity:1" />
    </linearGradient>
    <radialGradient
       r="14.572236"
       fy="137.66095"
       fx="223.19559"
       cy="137.66095"
       cx="223.19559"
       gradientTransform="matrix(1.0857794,-0.03431182,0.03943781,1.2479887,-154.54194,-26.542647)"
       gradientUnits="userSpaceOnUse"
       id="radialGradient29032"
       xlink:href="#linearGradient28799-4"
       inkscape:collect="always" />
    <linearGradient
       id="linearGradient28799-5-4">
      <stop
         id="stop28801-1-2"
         offset="0"
         style="stop-color:#fefefc;stop-opacity:1;" />
      <stop
         style="stop-color:#fefefc;stop-opacity:1"
         offset="0.75733864"
         id="stop28807-2-5" />
      <stop
         id="stop28803-6-6"
         offset="1"
         style="stop-color:#d4d4d4;stop-opacity:1" />
    </linearGradient>
    <radialGradient
       r="14.572236"
       fy="137.66095"
       fx="223.19559"
       cy="137.66095"
       cx="223.19559"
       gradientTransform="matrix(0.81524244,-0.03431182,0.02961133,1.2479887,-129.43743,-26.542647)"
       gradientUnits="userSpaceOnUse"
       id="radialGradient29648"
       xlink:href="#linearGradient28799-5-4"
       inkscape:collect="always" />
    <linearGradient
       inkscape:collect="always"
       id="linearGradient14392-7">
      <stop
         style="stop-color:#3e2a06;stop-opacity:1"
         offset="0"
         id="stop14394-8" />
      <stop
         style="stop-color:#ad780a;stop-opacity:1"
         offset="1"
         id="stop14396-6" />
    </linearGradient>
    <linearGradient
       inkscape:collect="always"
       xlink:href="#linearGradient14392-7"
       id="linearGradient14477"
       gradientUnits="userSpaceOnUse"
       gradientTransform="matrix(0.87491199,0,0,0.81148755,60.367186,62.586953)"
       x1="442.03912"
       y1="371.54401"
       x2="490.12241"
       y2="293.58548" />
    <linearGradient
       inkscape:collect="always"
       xlink:href="#linearGradient14392-7"
       id="linearGradient14485"
       gradientUnits="userSpaceOnUse"
       gradientTransform="translate(4e-6)"
       x1="442.03912"
       y1="371.54401"
       x2="490.12241"
       y2="293.58548" />
    <linearGradient
       inkscape:collect="always"
       xlink:href="#linearGradient14392-7"
       id="linearGradient14493"
       gradientUnits="userSpaceOnUse"
       gradientTransform="translate(4e-6)"
       x1="442.03912"
       y1="371.54401"
       x2="490.12241"
       y2="293.58548" />
    <clipPath
       clipPathUnits="userSpaceOnUse"
       id="clipPath14186-9">
      <path
         sodipodi:nodetypes="ssssssssssssssss"
         inkscape:connector-curvature="0"
         id="path14188-1"
         d="m 137.57703,281.0191 c 1.59929,-0.66295 3.3982,-0.78361 5.10074,-0.46963 1.70253,0.31398 3.31141,1.04948 4.74342,2.02239 2.86402,1.94583 4.98821,4.77774 7.02263,7.57952 4.67189,6.43406 9.16868,13.00227 13.24488,19.8293 3.30635,5.53766 6.34352,11.25685 10.16415,16.45304 2.49398,3.3919 5.3066,6.53947 7.813,9.92221 2.50639,3.38273 4.72794,7.05586 5.83931,11.11662 1.44411,5.27653 0.88463,11.09291 -1.62666,15.95302 -1.76663,3.41896 -4.47646,6.35228 -7.77242,8.33898 -3.29595,1.9867 -7.17064,3.01444 -11.01635,2.87021 -6.11413,-0.2293 -11.69944,-3.28515 -17.38362,-5.54906 -11.58097,-4.6125 -24.15978,-6.0594 -36.09666,-9.65174 -3.66859,-1.10404 -7.27582,-2.4107 -10.96988,-3.42629 -1.64125,-0.45122 -3.30866,-0.8482 -4.85875,-1.55144 -1.55008,-0.70325 -2.999548,-1.7491 -3.86171,-3.21675 -0.666391,-1.13439 -0.948386,-2.47002 -0.930187,-3.78554 0.0182,-1.31552 0.325889,-2.61453 0.773815,-3.85158 0.895851,-2.47409 2.343262,-4.71374 3.320162,-7.15696 1.59511,-3.98935 1.88169,-8.38839 1.66657,-12.67942 -0.21511,-4.29103 -0.91078,-8.54478 -1.20454,-12.83115 -0.13118,-1.91406 -0.18066,-3.85256 0.18479,-5.73598 0.36545,-1.88343 1.17577,-3.72459 2.55771,-5.05541 1.27406,-1.22693 2.96492,-1.95531 4.69643,-2.31651 1.73151,-0.3612 3.51533,-0.37747 5.28367,-0.33762 1.76833,0.0399 3.54067,0.13425 5.30351,-0.0106 1.76284,-0.14488 3.53347,-0.54055 5.06911,-1.41828 1.45996,-0.83447 2.65433,-2.0745 3.64374,-3.43424 0.9894,-1.35974 1.78909,-2.84573 2.60891,-4.31396 0.81983,-1.46823 1.66834,-2.93151 2.74157,-4.22611 1.07324,-1.2946 2.38923,-2.42304 3.94266,-3.06698"
         style="fill:#402c07;fill-opacity:1;stroke:none" />
    </clipPath>
    <inkscape:path-effect
       is_visible="true"
       id="path-effect4669-1"
       effect="spiro"
       lpeversion="0" />
    <inkscape:path-effect
       is_visible="true"
       id="path-effect4669-4-3"
       effect="spiro"
       lpeversion="0" />
    <inkscape:path-effect
       effect="spiro"
       id="path-effect14972-2-2"
       is_visible="true"
       lpeversion="0" />
    <inkscape:path-effect
       effect="spiro"
       id="path-effect15017-9"
       is_visible="true"
       lpeversion="0" />
    <clipPath
       clipPathUnits="userSpaceOnUse"
       id="clipPath15031-3">
      <path
         style="fill:none;stroke:#729fcf;stroke-width:0.125;stroke-linecap:butt;stroke-linejoin:miter;stroke-miterlimit:4;stroke-dasharray:none;stroke-opacity:1"
         d="m 248.06066,184.61218 c -2.60091,3.4397 -5.23338,6.85555 -7.89695,10.24696 -2.83301,3.60715 -5.70116,7.1866 -8.58729,10.75139 -3.54135,4.37407 -7.15155,8.79286 -9.44912,13.93045 -1.97407,4.41422 -2.91014,9.20748 -4.26498,13.84932 -1.53862,5.27153 -3.62627,10.37023 -5.97071,15.33612 -2.1648,4.58539 -4.54978,9.06293 -6.93891,13.53553 -1.73823,3.25407 -3.50515,6.58104 -4.10782,10.22071 -0.47627,2.87632 -0.19849,5.84423 0.53376,8.66626 0.73224,2.82202 1.90964,5.5106 3.23775,8.10601 5.66724,11.07504 14.17003,20.62168 24.24176,27.92472 4.57063,3.31418 9.46669,6.18109 14.60245,8.52595 2.78247,1.27041 5.71355,2.40436 8.77186,2.45744 1.52915,0.0265 3.0741,-0.22544 4.47434,-0.84055 1.40024,-0.6151 2.65068,-1.60373 3.48254,-2.88709 1.02278,-1.5779 1.36992,-3.53829 1.16461,-5.40743 -0.2053,-1.86914 -0.93484,-3.65294 -1.91324,-5.25873 -2.38997,-3.92251 -6.1652,-6.76055 -9.79642,-9.57343 -7.84055,-6.07358 -15.42466,-12.48038 -22.68212,-19.23996 -2.04911,-1.90854 -4.0984,-3.87759 -5.53019,-6.28412 -1.3943,-2.34352 -2.14763,-5.01375 -2.65783,-7.69253 -1.39963,-7.34872 -1.0404,-15.0827 1.45958,-22.13343 0.97802,-2.75834 2.27066,-5.39225 3.51815,-8.03965 2.1622,-4.58855 4.21133,-9.26299 7.04933,-13.46723 3.53268,-5.23334 8.24484,-9.67275 11.15147,-15.27803 2.45457,-4.7335 3.49353,-10.05742 4.36185,-15.31831 0.66531,-4.03089 1.24751,-8.07549 1.74613,-12.13037"
         id="path15033-2"
         inkscape:connector-curvature="0"
         sodipodi:nodetypes="czzzzzzzzzzzzzzzszzzzzc" />
    </clipPath>
    <inkscape:path-effect
       is_visible="true"
       id="path-effect29716-6-1"
       effect="spiro"
       lpeversion="0" />
    <clipPath
       clipPathUnits="userSpaceOnUse"
       id="clipPath14822-9">
      <path
         sodipodi:nodetypes="aaaasssaccaa"
         inkscape:connector-curvature="0"
         d="m 386.1875,285.32775 c -0.40516,-1.10369 -1.11845,-2.08156 -1.9907,-2.86987 -0.87226,-0.78832 -1.90049,-1.39229 -2.98278,-1.85155 -2.16459,-0.91852 -4.52053,-1.26149 -6.83152,-1.69556 -2.17919,-0.40931 -4.34179,-0.90631 -6.52782,-1.27734 -2.27136,-0.38551 -4.6179,-0.63213 -6.8653,-0.1253 -1.96583,0.44333 -3.7845,1.45879 -5.27172,2.81864 -1.48723,1.35984 -2.64911,3.0564 -3.48499,4.89007 -1.47218,3.22952 -1.93451,6.86503 -1.65394,10.40316 0.20882,2.63325 0.87532,5.34594 2.60877,7.33912 1.40065,1.61052 3.38733,2.61526 5.43398,3.22092 3.52502,1.04316 7.36663,0.98822 10.86038,-0.1553 5.76689,-1.93113 10.87568,-5.77387 14.33034,-10.77903 1.13861,-1.64963 2.11217,-3.44809 2.5532,-5.4034 0.33597,-1.48955 0.34831,-3.08112 -0.1779,-4.51456"
         id="path14824-1"
         style="fill:none;stroke:#ce5c00;stroke-width:1px;stroke-linecap:butt;stroke-linejoin:miter;stroke-opacity:1" />
    </clipPath>
    <clipPath
       clipPathUnits="userSpaceOnUse"
       id="clipPath14822-2-4">
      <path
         sodipodi:nodetypes="aaaasssaccaa"
         inkscape:connector-curvature="0"
         d="m 386.1875,285.32775 c -0.40516,-1.10369 -1.11845,-2.08156 -1.9907,-2.86987 -0.87226,-0.78832 -1.90049,-1.39229 -2.98278,-1.85155 -2.16459,-0.91852 -4.52053,-1.26149 -6.83152,-1.69556 -2.17919,-0.40931 -4.34179,-0.90631 -6.52782,-1.27734 -2.27136,-0.38551 -4.6179,-0.63213 -6.8653,-0.1253 -1.96583,0.44333 -3.7845,1.45879 -5.27172,2.81864 -1.48723,1.35984 -2.64911,3.0564 -3.48499,4.89007 -1.47218,3.22952 -1.93451,6.86503 -1.65394,10.40316 0.20882,2.63325 0.87532,5.34594 2.60877,7.33912 1.40065,1.61052 3.38733,2.61526 5.43398,3.22092 3.52502,1.04316 7.36663,0.98822 10.86038,-0.1553 5.76689,-1.93113 10.87568,-5.77387 14.33034,-10.77903 1.13861,-1.64963 2.11217,-3.44809 2.5532,-5.4034 0.33597,-1.48955 0.34831,-3.08112 -0.1779,-4.51456"
         id="path14824-6-5"
         style="fill:none;stroke:#ce5c00;stroke-width:1px;stroke-linecap:butt;stroke-linejoin:miter;stroke-opacity:1" />
    </clipPath>
    <linearGradient
       id="linearGradient14518-6">
      <stop
         id="stop14540-0"
         offset="0"
         style="stop-color:#110800;stop-opacity:1;" />
      <stop
         style="stop-color:#a65a00;stop-opacity:0.80000001;"
         offset="0.59066743"
         id="stop14542-5" />
      <stop
         style="stop-color:#ff921e;stop-opacity:0;"
         offset="1"
         id="stop14522-4" />
    </linearGradient>
    <inkscape:path-effect
       is_visible="true"
       id="path-effect29716-0-0"
       effect="spiro"
       lpeversion="0" />
    <linearGradient
       id="linearGradient14518-2-2">
      <stop
         id="stop14540-5-0"
         offset="0"
         style="stop-color:#110800;stop-opacity:1;" />
      <stop
         style="stop-color:#a65a00;stop-opacity:0.80000001;"
         offset="0.59066743"
         id="stop14542-2-7" />
      <stop
         style="stop-color:#ff921e;stop-opacity:0;"
         offset="1"
         id="stop14522-2-1" />
    </linearGradient>
    <inkscape:path-effect
       is_visible="true"
       id="path-effect29716-0-8-3"
       effect="spiro"
       lpeversion="0" />
    <inkscape:path-effect
       effect="spiro"
       id="path-effect14300-7"
       is_visible="true"
       lpeversion="0" />
    <clipPath
       clipPathUnits="userSpaceOnUse"
       id="clipPath14489-3">
      <path
         style="fill:url(#linearGradient14493);fill-opacity:1;stroke:none"
         d="m 516.00562,331.8756 c -0.6714,1.71905 -1.62682,3.32679 -2.81579,4.73826 -2.6238,3.11482 -6.268,5.17039 -9.89648,7.01985 -6.1886,3.15437 -12.60169,5.92177 -18.41964,9.71654 -3.89802,2.54249 -7.4959,5.52671 -10.86016,8.74238 -2.87719,2.75012 -5.60582,5.68745 -8.83247,8.01771 -3.25567,2.35122 -7.01915,4.05426 -10.99061,4.6502 -4.83026,0.72481 -9.82134,-0.21289 -14.29898,-2.16416 -3.13754,-1.36728 -6.15569,-3.3229 -7.96301,-6.22931 -1.81425,-2.91754 -2.22807,-6.48813 -2.23266,-9.92375 -0.008,-6.07666 1.11824,-12.09004 2.17848,-18.07349 0.88097,-4.97177 1.71949,-9.95483 2.26013,-14.97502 0.98337,-9.13118 0.9763,-18.35278 0.3199,-27.51327 -0.10993,-1.53416 -0.23754,-3.0832 -0.008,-4.60412 0.22922,-1.52092 0.85475,-3.0367 2.02069,-4.03986 1.07696,-0.9266 2.52093,-1.33598 3.93947,-1.4145 1.41854,-0.0785 2.83404,0.14655 4.23982,0.35197 3.31254,0.48405 6.65159,0.8649 9.88917,1.71656 2.04284,0.53738 4.03315,1.25925 6.0722,1.81081 3.40258,0.92039 6.96639,1.36144 10.46739,0.95192 3.76917,-0.44089 7.42987,-1.85678 11.22363,-1.76474 1.55658,0.0378 3.1015,0.33171 4.58649,0.79985 1.51539,0.47772 3.00914,1.16182 4.12281,2.29512 0.84639,0.8613 1.43579,1.94539 1.87872,3.06879 0.65982,1.67352 1.01492,3.457 1.16703,5.24945 0.13475,1.58788 0.11343,3.19441 0.41433,4.75933 0.49503,2.57458 1.84746,4.92305 3.52848,6.93494 1.68102,2.01189 3.68982,3.72048 5.69641,5.40783 1.99908,1.68103 4.0106,3.35469 6.16708,4.82839 1.0121,0.69165 2.05642,1.33949 3.01736,2.10062 0.96094,0.76113 1.84466,1.6468 2.44543,2.71535 0.81492,1.44944 1.06377,3.2077 0.68307,4.82635 h 2e-5"
         id="path14491-6"
         inkscape:connector-curvature="0"
         sodipodi:nodetypes="aaaaaaaaaaaaaaaaaaaaaaaacscaa" />
    </clipPath>
    <inkscape:path-effect
       effect="spiro"
       id="path-effect14300-2-7"
       is_visible="true"
       lpeversion="0" />
    <clipPath
       clipPathUnits="userSpaceOnUse"
       id="clipPath14481-1">
      <path
         style="fill:url(#linearGradient14485);fill-opacity:1;stroke:none"
         d="m 516.00562,331.8756 c -0.6714,1.71905 -1.62682,3.32679 -2.81579,4.73826 -2.6238,3.11482 -6.268,5.17039 -9.89648,7.01985 -6.1886,3.15437 -12.60169,5.92177 -18.41964,9.71654 -3.89802,2.54249 -7.4959,5.52671 -10.86016,8.74238 -2.87719,2.75012 -5.60582,5.68745 -8.83247,8.01771 -3.25567,2.35122 -7.01915,4.05426 -10.99061,4.6502 -4.83026,0.72481 -9.82134,-0.21289 -14.29898,-2.16416 -3.13754,-1.36728 -6.15569,-3.3229 -7.96301,-6.22931 -1.81425,-2.91754 -2.22807,-6.48813 -2.23266,-9.92375 -0.008,-6.07666 1.11824,-12.09004 2.17848,-18.07349 0.88097,-4.97177 1.71949,-9.95483 2.26013,-14.97502 0.98337,-9.13118 0.9763,-18.35278 0.3199,-27.51327 -0.10993,-1.53416 -0.23754,-3.0832 -0.008,-4.60412 0.22922,-1.52092 0.85475,-3.0367 2.02069,-4.03986 1.07696,-0.9266 2.52093,-1.33598 3.93947,-1.4145 1.41854,-0.0785 2.83404,0.14655 4.23982,0.35197 3.31254,0.48405 6.65159,0.8649 9.88917,1.71656 2.04284,0.53738 4.03315,1.25925 6.0722,1.81081 3.40258,0.92039 6.96639,1.36144 10.46739,0.95192 3.76917,-0.44089 7.42987,-1.85678 11.22363,-1.76474 1.55658,0.0378 3.1015,0.33171 4.58649,0.79985 1.51539,0.47772 3.00914,1.16182 4.12281,2.29512 0.84639,0.8613 1.43579,1.94539 1.87872,3.06879 0.65982,1.67352 1.01492,3.457 1.16703,5.24945 0.13475,1.58788 0.11343,3.19441 0.41433,4.75933 0.49503,2.57458 1.84746,4.92305 3.52848,6.93494 1.68102,2.01189 3.68982,3.72048 5.69641,5.40783 1.99908,1.68103 4.0106,3.35469 6.16708,4.82839 1.0121,0.69165 2.05642,1.33949 3.01736,2.10062 0.96094,0.76113 1.84466,1.6468 2.44543,2.71535 0.81492,1.44944 1.06377,3.2077 0.68307,4.82635 h 2e-5"
         id="path14483-3"
         inkscape:connector-curvature="0"
         sodipodi:nodetypes="aaaaaaaaaaaaaaaaaaaaaaaacscaa" />
    </clipPath>
    <inkscape:path-effect
       effect="spiro"
       id="path-effect14300-2-2-0"
       is_visible="true"
       lpeversion="0" />
    <clipPath
       clipPathUnits="userSpaceOnUse"
       id="clipPath14473-5">
      <path
         style="fill:url(#linearGradient14477);fill-opacity:1;stroke:none"
         d="m 511.82669,331.89986 c -0.60617,1.40358 -1.44178,2.70776 -2.46357,3.84504 -2.32524,2.58805 -5.50706,4.22246 -8.65855,5.69652 -5.42045,2.53534 -11.00071,4.7788 -16.11556,7.88485 -3.38301,2.05437 -6.53696,4.47221 -9.50169,7.09434 -2.52461,2.23286 -4.92977,4.6271 -7.72763,6.50627 -2.88313,1.93644 -6.17534,3.29888 -9.61582,3.77358 -4.21817,0.58201 -8.55335,-0.18335 -12.51035,-1.75619 -2.7091,-1.07682 -5.36625,-2.6185 -6.96693,-5.05501 -1.53813,-2.3413 -1.9333,-5.25173 -1.95338,-8.053 -0.0354,-4.93859 0.96501,-9.81816 1.90598,-14.66641 0.78215,-4.02995 1.52682,-8.0717 1.97741,-12.15204 0.81784,-7.40607 0.66114,-14.88536 0.27989,-22.32668 -0.064,-1.24906 -0.13361,-2.5105 0.0789,-3.74301 0.21256,-1.23251 0.73646,-2.45247 1.68171,-3.27147 0.93914,-0.8137 2.20952,-1.15942 3.45104,-1.2115 1.24152,-0.0521 2.47642,0.16381 3.70512,0.34927 2.88969,0.43617 5.81087,0.7091 8.65215,1.39297 1.78651,0.43 3.53091,1.02011 5.31265,1.46945 2.98632,0.75312 6.09645,1.10709 9.15804,0.77247 3.2941,-0.36004 6.50688,-1.50957 9.81969,-1.43207 1.35838,0.0318 2.70755,0.27142 4.01277,0.64907 1.31265,0.3798 2.61744,0.9202 3.6071,1.86246 0.72535,0.69061 1.25006,1.56936 1.64371,2.49029 0.57625,1.34814 0.88626,2.79994 1.02105,4.25986 0.11897,1.28855 0.10468,2.59405 0.36251,3.86214 0.4369,2.14878 1.63966,4.08139 3.11506,5.70353 1.4754,1.62214 3.22406,2.96752 4.9559,4.31247 1.75634,1.36398 3.50975,2.7398 5.39565,3.91818 0.88228,0.55128 1.79349,1.05932 2.63473,1.67142 0.84123,0.61209 1.61878,1.33907 2.14473,2.23668 0.68386,1.16711 0.90229,2.59857 0.59763,3.91652 h 2e-5"
         id="path14475-9"
         inkscape:connector-curvature="0"
         sodipodi:nodetypes="aaaaaaaaaaaaaaaaaaaaaaaacscaa" />
    </clipPath>
    <inkscape:path-effect
       is_visible="true"
       id="path-effect4582-3"
       effect="spiro"
       lpeversion="0" />
    <inkscape:path-effect
       is_visible="true"
       id="path-effect4500-7"
       effect="spiro"
       lpeversion="0" />
    <clipPath
       clipPathUnits="userSpaceOnUse"
       id="clipPath14656-7">
      <path
         sodipodi:nodetypes="aaaaassssaaaaaa"
         inkscape:connector-curvature="0"
         d="m 304.84727,225.44951 c 6.01627,4.92338 9.77707,12.317 10.94319,20.00305 1.8254,12.03148 -2.34636,24.07488 -6.44591,35.53273 -0.81749,2.28481 -1.63978,4.59033 -1.96473,6.99513 -0.32495,2.4048 -0.11897,4.94825 1.02948,7.08594 1.30279,2.42497 3.73227,4.12469 6.36677,4.92292 2.58877,0.78438 5.39365,0.76103 8.01466,0.0922 2.62101,-0.66882 5.06097,-1.96774 7.18716,-3.63996 5.48002,-4.30997 8.75799,-10.98552 10.01043,-17.84394 1.25243,-6.85841 0.63908,-13.92879 -0.551,-20.7983 -1.62313,-9.36916 -4.30898,-18.53961 -7.74003,-27.40773 -2.51766,-6.50732 -5.46794,-12.91081 -9.61753,-18.52016 -4.04611,-5.46946 -9.16208,-10.08954 -13.10336,-15.63502 -2.73209,-3.84412 -4.89983,-8.13097 -8.1917,-11.50812 -1.64594,-1.68858 -3.57654,-3.13527 -5.76975,-4.00143 -2.19321,-0.86616 -4.66356,-1.12446 -6.93254,-0.48249 -1.50468,0.42573 -2.89193,1.23739 -4.03791,2.30136 -1.14598,1.06397 -2.05268,2.37637 -2.69275,3.80312 -1.28015,2.85349 -1.47719,6.11241 -0.96512,9.1977 0.66114,3.98343 2.44407,7.69333 4.46569,11.18873 2.27396,3.93169 4.918,7.71926 8.38442,10.65407 3.5985,3.04664 7.96161,5.07413 11.61053,8.0602"
         id="path14658-9"
         style="fill:none;stroke:#c17d11;stroke-width:1px;stroke-linecap:butt;stroke-linejoin:miter;stroke-opacity:1" />
    </clipPath>
    <inkscape:path-effect
       is_visible="true"
       id="path-effect29707-7-6"
       effect="spiro"
       lpeversion="0" />
    <inkscape:path-effect
       is_visible="true"
       id="path-effect29553-7"
       effect="spiro"
       lpeversion="0" />
    <clipPath
       id="clipPath29644-8"
       clipPathUnits="userSpaceOnUse">
      <path
         sodipodi:nodetypes="zzzzzzz"
         inkscape:connector-curvature="0"
         id="path29646-8"
         d="m 54.232441,122.36218 c -1.780966,0.097 -3.484616,0.91899 -4.787851,2.1367 -1.303235,1.21771 -2.221372,2.81176 -2.786181,4.50357 -1.129618,3.38363 -0.875481,7.05177 -0.618698,10.60973 0.23251,3.22162 0.470404,6.50533 1.676785,9.50158 0.60319,1.49813 1.450247,2.91021 2.580338,4.06395 1.130092,1.15374 2.551736,2.04189 4.118297,2.43447 1.468838,0.36809 3.038161,0.29183 4.482784,-0.16209 1.444623,-0.45391 2.763917,-1.27887 3.846236,-2.33791 1.57904,-1.54507 2.643262,-3.5662 3.253449,-5.68947 0.610186,-2.12328 0.784157,-4.35155 0.752401,-6.56053 -0.03974,-2.76435 -0.400909,-5.53851 -1.265755,-8.16439 -0.864846,-2.62588 -2.245742,-5.10327 -4.172795,-7.08561 -0.933308,-0.96009 -1.997766,-1.80513 -3.198586,-2.39747 -1.200819,-0.59233 -2.54344,-0.92535 -3.880424,-0.85253"
         style="fill:url(#radialGradient29648);fill-opacity:1;stroke:none" />
    </clipPath>
    <linearGradient
       id="linearGradient28469-0">
      <stop
         style="stop-color:#d2940a;stop-opacity:1"
         offset="0"
         id="stop28479-4" />
      <stop
         style="stop-color:#d89c08;stop-opacity:1"
         offset="0.75143719"
         id="stop28477-2" />
      <stop
         id="stop28485-7"
         offset="0.86579126"
         style="stop-color:#b67e07;stop-opacity:1;" />
      <stop
         id="stop28473-1"
         offset="1"
         style="stop-color:#946106;stop-opacity:1" />
    </linearGradient>
    <inkscape:path-effect
       is_visible="true"
       id="path-effect28463-4"
       effect="spiro"
       lpeversion="0" />
    <inkscape:path-effect
       is_visible="true"
       id="path-effect28489-4"
       effect="spiro"
       lpeversion="0" />
    <inkscape:path-effect
       is_visible="true"
       id="path-effect28273-54-7"
       effect="spiro"
       lpeversion="0" />
    <linearGradient
       id="linearGradient28275-8">
      <stop
         id="stop28277-1"
         offset="0"
         style="stop-color:#ad780a;stop-opacity:1" />
      <stop
         style="stop-color:#d89e08;stop-opacity:1"
         offset="0.11972899"
         id="stop28291-9" />
      <stop
         style="stop-color:#edb80b;stop-opacity:1"
         offset="0.25514477"
         id="stop28289-6" />
      <stop
         style="stop-color:#ebc80d;stop-opacity:1"
         offset="0.39194193"
         id="stop28287-6" />
      <stop
         style="stop-color:#f5d838;stop-opacity:1"
         offset="0.52741116"
         id="stop28285-7" />
      <stop
         style="stop-color:#f6d811;stop-opacity:1"
         offset="0.76906693"
         id="stop28283-7" />
      <stop
         id="stop28279-5"
         offset="1"
         style="stop-color:#f5cd31;stop-opacity:1" />
    </linearGradient>
    <inkscape:path-effect
       is_visible="true"
       id="path-effect28273-44"
       effect="spiro"
       lpeversion="0" />
    <inkscape:path-effect
       is_visible="true"
       id="path-effect28384-7"
       effect="spiro"
       lpeversion="0" />
    <linearGradient
       id="linearGradient29529-6">
      <stop
         id="stop29531-0"
         offset="0"
         style="stop-color:#3a2903;stop-opacity:1;" />
      <stop
         style="stop-color:#735208;stop-opacity:1"
         offset="0.55472803"
         id="stop29539-7" />
      <stop
         id="stop29533-8"
         offset="1"
         style="stop-color:#ac8c04;stop-opacity:1" />
    </linearGradient>
    <inkscape:path-effect
       is_visible="true"
       id="path-effect29455-3"
       effect="spiro"
       lpeversion="0" />
    <linearGradient
       id="linearGradient29477-3">
      <stop
         id="stop29479-5"
         offset="0"
         style="stop-color:#757574;stop-opacity:0" />
      <stop
         style="stop-color:#757574;stop-opacity:1;"
         offset="0.26291031"
         id="stop29487-5" />
      <stop
         style="stop-color:#757574;stop-opacity:1;"
         offset="0.5"
         id="stop29485-0" />
      <stop
         id="stop29481-3"
         offset="1"
         style="stop-color:#757574;stop-opacity:0" />
    </linearGradient>
    <linearGradient
       id="linearGradient29336-6">
      <stop
         id="stop29338-1"
         offset="0"
         style="stop-color:#646464;stop-opacity:0" />
      <stop
         style="stop-color:#646464;stop-opacity:0.5825243"
         offset="0.30628255"
         id="stop29344-7" />
      <stop
         id="stop29354-5"
         offset="0.47000006"
         style="stop-color:#646464;stop-opacity:1" />
      <stop
         style="stop-color:#646464;stop-opacity:0.25728154"
         offset="0.72834015"
         id="stop29356-3" />
      <stop
         id="stop29340-6"
         offset="1"
         style="stop-color:#646464;stop-opacity:0;" />
    </linearGradient>
    <linearGradient
       id="linearGradient28976-3">
      <stop
         id="stop28978-7"
         offset="0"
         style="stop-color:#747474;stop-opacity:1" />
      <stop
         style="stop-color:#8c8c8c;stop-opacity:1;"
         offset="0.125"
         id="stop29259-5" />
      <stop
         style="stop-color:#a4a4a4;stop-opacity:1;"
         offset="0.25"
         id="stop29257-0" />
      <stop
         style="stop-color:#d4d4d4;stop-opacity:1"
         offset="0.5"
         id="stop28984-4" />
      <stop
         id="stop28986-0"
         offset="0.61919296"
         style="stop-color:#d4d4d4;stop-opacity:1" />
      <stop
         id="stop28980-2"
         offset="1"
         style="stop-color:#7c7c7c;stop-opacity:1" />
    </linearGradient>
    <inkscape:path-effect
       is_visible="true"
       id="path-effect28974-8"
       effect="spiro"
       lpeversion="0" />
    <clipPath
       id="clipPath29028-5"
       clipPathUnits="userSpaceOnUse">
      <path
         sodipodi:nodetypes="aaaaaaaa"
         inkscape:connector-curvature="0"
         id="path29030-7"
         d="m 85.75,122.36218 c -2.780425,1.91023 -5.110569,4.57487 -6.25,7.75 -1.436029,4.00163 -0.885838,8.48071 0.5,12.5 1.419488,4.11688 3.793788,8.04098 7.37932,10.51234 1.792766,1.23567 3.868091,2.08301 6.030402,2.33859 2.162311,0.25558 4.409274,-0.0949 6.340278,-1.10093 2.35312,-1.22596 4.14782,-3.37278 5.26217,-5.78076 1.11436,-2.40798 1.5888,-5.0701 1.73783,-7.71924 0.18989,-3.37546 -0.14047,-6.80646 -1.25,-10 -1.20527,-3.46909 -3.39005,-6.67055 -6.472754,-8.6666 -1.541351,-0.99803 -3.291947,-1.68356 -5.110883,-1.93515 -1.818936,-0.25158 -3.704766,-0.0633 -5.416363,0.60175 -0.975471,0.37901 -1.887438,0.9074 -2.75,1.5"
         style="fill:url(#radialGradient29032);fill-opacity:1;stroke:none" />
    </clipPath>
    <inkscape:path-effect
       is_visible="true"
       id="path-effect28881-6"
       effect="spiro"
       lpeversion="0" />
    <linearGradient
       id="linearGradient28935-8">
      <stop
         id="stop28937-7"
         offset="0"
         style="stop-color:#949494;stop-opacity:0.39215687;" />
      <stop
         style="stop-color:#949494;stop-opacity:1;"
         offset="0.5"
         id="stop28943-3" />
      <stop
         id="stop28939-8"
         offset="1"
         style="stop-color:#949494;stop-opacity:0.39215687;" />
    </linearGradient>
    <linearGradient
       id="linearGradient28853-5">
      <stop
         id="stop28855-3"
         offset="0"
         style="stop-color:#020204;stop-opacity:1" />
      <stop
         style="stop-color:#020204;stop-opacity:1"
         offset="0.73448181"
         id="stop28865-0" />
      <stop
         id="stop28857-9"
         offset="1"
         style="stop-color:#5c5c5c;stop-opacity:1;" />
    </linearGradient>
    <inkscape:path-effect
       is_visible="true"
       id="path-effect28851-0"
       effect="spiro"
       lpeversion="0" />
    <inkscape:path-effect
       is_visible="true"
       id="path-effect28273-4-2"
       effect="spiro"
       lpeversion="0" />
    <linearGradient
       id="linearGradient28799-3">
      <stop
         id="stop28801-6"
         offset="0"
         style="stop-color:#fefefc;stop-opacity:1;" />
      <stop
         style="stop-color:#fefefc;stop-opacity:1"
         offset="0.75733864"
         id="stop28807-7" />
      <stop
         id="stop28803-0"
         offset="1"
         style="stop-color:#d4d4d4;stop-opacity:1" />
    </linearGradient>
    <inkscape:path-effect
       is_visible="true"
       id="path-effect28797-81"
       effect="spiro"
       lpeversion="0" />
    <linearGradient
       id="linearGradient28799-5-5">
      <stop
         id="stop28801-1-9"
         offset="0"
         style="stop-color:#fefefc;stop-opacity:1;" />
      <stop
         style="stop-color:#fefefc;stop-opacity:1"
         offset="0.75733864"
         id="stop28807-2-6" />
      <stop
         id="stop28803-6-3"
         offset="1"
         style="stop-color:#d4d4d4;stop-opacity:1" />
    </linearGradient>
    <inkscape:path-effect
       is_visible="true"
       id="path-effect28797-8-1"
       effect="spiro"
       lpeversion="0" />
    <inkscape:path-effect
       is_visible="true"
       id="path-effect28463-0-7"
       effect="spiro"
       lpeversion="0" />
    <inkscape:path-effect
       is_visible="true"
       id="path-effect28463-8-0"
       effect="spiro"
       lpeversion="0" />
    <inkscape:path-effect
       is_visible="true"
       id="path-effect29721-2"
       effect="spiro"
       lpeversion="0" />
    <inkscape:path-effect
       is_visible="true"
       id="path-effect28714-5"
       effect="spiro"
       lpeversion="0" />
    <inkscape:path-effect
       is_visible="true"
       id="path-effect29678-4-6"
       effect="spiro"
       lpeversion="0" />
    <inkscape:path-effect
       is_visible="true"
       id="path-effect29678-1"
       effect="spiro"
       lpeversion="0" />
    <inkscape:path-effect
       is_visible="true"
       id="path-effect29672-0"
       effect="spiro"
       lpeversion="0" />
  </defs>
  <metadata
     id="metadata27455">
    <rdf:RDF>
      <cc:Work
         rdf:about="">
        <dc:format>image/svg+xml</dc:format>
        <dc:type
           rdf:resource="http://purl.org/dc/dcmitype/StillImage" />
        <dc:title>Tux</dc:title>
        <dc:date>20 June 2012</dc:date>
        <dc:creator>
          <cc:Agent>
            <dc:title>Garrett LeSage</dc:title>
          </cc:Agent>
        </dc:creator>
        <cc:license
           rdf:resource="http://creativecommons.org/publicdomain/zero/1.0/" />
        <dc:contributor>
          <cc:Agent>
            <dc:title>Larry Ewing, the creator of the original Tux graphic</dc:title>
          </cc:Agent>
        </dc:contributor>
        <dc:subject>
          <rdf:Bag>
            <rdf:li>tux</rdf:li>
            <rdf:li>Linux</rdf:li>
            <rdf:li>penguin</rdf:li>
            <rdf:li>logo</rdf:li>
          </rdf:Bag>
        </dc:subject>
        <dc:rights>
          <cc:Agent>
            <dc:title>Larry Ewing, Garrett LeSage</dc:title>
          </cc:Agent>
        </dc:rights>
        <dc:source>https://github.com/garrett/Tux</dc:source>
      </cc:Work>
      <cc:License
         rdf:about="http://creativecommons.org/publicdomain/zero/1.0/">
        <cc:permits
           rdf:resource="http://creativecommons.org/ns#Reproduction" />
        <cc:permits
           rdf:resource="http://creativecommons.org/ns#Distribution" />
        <cc:permits
           rdf:resource="http://creativecommons.org/ns#DerivativeWorks" />
      </cc:License>
    </rdf:RDF>
  </metadata>
  <g
     inkscape:groupmode="layer"
     id="layer2"
     inkscape:label="Edge.Cuts">
    <path
       d="M 1196.63,0.10070901 C 1175.8751,-0.304419 1158.4641,0.57381129 1146.4,1.6497967 1105.943,5.2507416 935.75345,46.926261 856.32323,210.43789 h -0.002 c -24.67704,49.79372 -40.92054,111.01371 -42.33441,186.11025 -5.99686,318.53434 13.58601,269.2706 1.49782,415.43383 -4.43767,53.7927 -35.67305,132.44234 -74.03028,211.20513 -43.99625,89.9777 -97.0078,179.7464 -129.71687,232.4199 -61.8346,99.563 -134.55114,203.0916 -185.30091,308.3289 -29.01044,59.7161 -51.04043,119.9878 -60.06286,180.4064 -6.03167,40.3864 -6.73256,92.6066 -5.38152,141.5456 -35.76701,31.7214 -54.13831,85.1497 -90.8908,125.8808 -23.70587,26.2105 -69.52657,34.7223 -120.31065,44.7642 -43.57001,8.5128 -89.672281,25.8276 -105.788406,52.3248 -1.799259,2.9562 -3.425477,6.0206 -4.918262,9.17 -36.6952835,72.1256 8.215214,195.9143 -13.689101,287.4876 -9.275534,38.9323 -25.11070352,75.5698 -25.39331993,109.1448 -0.09367991,17.3146 3.74718943,35.6792 15.55496493,56.5325 12.930239,22.9581 41.322136,39.313 81.707967,53.5662 37.668167,13.2968 86.581387,24.9681 143.457237,38.6467 l 19.67854,4.6875 c 25.57946,6.219 51.06623,12.4352 76.83366,17.6973 16.77274,3.5392 26.51986,5.26 34.8563,6.7915 36.2612,6.6001 50.03454,9.1833 146.73486,47.7324 23.33283,9.2796 49.19266,19.2261 76.5535,27.7389 54.06555,17.1227 115.16037,29.5588 171.5697,19.1329 28.58019,-5.2599 55.56565,-16.3582 79.5528,-35.488 24.83063,-19.8001 48.72394,-46.4879 65.68424,-73.5579 4.53386,-7.2193 8.72541,-14.6932 12.39637,-22.383 3.21681,-6.4897 6.07358,-13.1387 8.45772,-19.9258 2.27273,-6.1862 4.16782,-12.6039 5.54816,-19.0468 22.7517,-11.5818 79.05115,-29.059 213.09845,-30.383 202.0205,-2.0095 336.575,72.4135 336.575,72.4135 l 0.095,-1.529 c 1.686,9.7576 3.7477,18.8437 6.3721,27.5485 3.8428,12.7217 8.9954,24.3912 15.9285,35.6785 7.0287,11.192 15.7431,21.8099 26.7996,32.2378 11.9932,11.2871 26.4244,21.7158 42.9167,30.6119 15.367,8.2266 32.6067,15.1134 51.5337,20.1839 17.241,4.5924 35.8882,7.6534 55.6592,8.6097 18.4605,0.9564 37.7608,0.095 57.9076,-2.8711 34.0139,-4.9736 60.249,-15.9743 82.8305,-30.2274 22.0203,-13.87 40.0109,-30.5144 58.3764,-47.5401 l 0.564,-0.4779 c 12.0883,-11.1926 24.3623,-22.5736 37.9489,-33.0014 9.088,-6.9833 17.4279,-13.4883 25.3934,-19.7994 11.8056,-9.2795 18.3651,-14.541 25.0179,-19.8983 19.9588,-15.9742 40.5719,-32.6174 61.1871,-48.3055 21.3639,-16.1664 44.0386,-32.6189 68.6836,-48.6883 18.6462,-12.2436 39.6346,-26.114 59.7809,-39.6006 20.8028,-13.9669 42.54,-28.6014 63.0603,-42.9496 36.6521,-25.4138 87.2371,-56.9141 106.4,-97.8288 6.4001,-12.657 9.8362,-26.222 8.9063,-40.8054 -2.9981,-46.7753 -57.2508,-88.9609 -105.2244,-130.8595 -23.3329,-20.4697 -46.8513,-40.7493 -59.1254,-61.5075 -9.9317,-16.739 -21.928,-41.9922 -25.2999,-60.3577 -9.4696,-50.9295 -9.2665,-88.977 -32.8879,-122.6196 -21.6776,-30.8745 -40.6262,-39.7555 -74.0376,-43.6089 -5.0082,-0.5779 -9.7162,-1.2952 -14.2805,-2.0526 21.7057,-81.5779 26.5572,-133.3719 22.5862,-201.7092 -9.0714,-156.1115 -109.1841,-333.7372 -222.446,-513.7203 -66.8383,-112.7058 -137.1723,-218.46927 -181.1774,-292.76841 -24.058,-41.28144 -37.8432,-68.46077 -50.4076,-104.41694 -14.4817,-41.44091 -19.4987,-141.99547 -21.18,-304.13023 5.9968,-248.42024 -69.3396,-363.11053 -160.51,-434.661921 C 1351.2535,14.086482 1258.8946,1.316093 1196.63,0.10070901 Z"
       style="fill-rule:evenodd;stroke-width:3.92159"
       id="path11" />
  </g>
  <g
     inkscape:groupmode="layer"
     id="layer3"
     inkscape:label="F.SilkS">
    <path
       id="path3224"
       style="fill:#f5f5f5;fill-rule:evenodd;stroke-width:3.92159"
       d="m 2921.6884,258.7126 c -166.9829,-2.01613 -328.236,130.23793 -381.2481,308.51152 -43.9059,148.72175 -41.9112,266.88756 -34.7851,331.50648 v 0.0111 c 49.0441,15.1339 100.0679,34.93298 158.5175,57.925 -36.21,-83.24452 -33.6347,-191.22892 14.2596,-280.29322 68.4269,-127.77417 203.8552,-168.81342 302.5022,-91.38893 98.3643,77.41787 122.8828,243.61254 54.1734,371.3867 -24.8078,46.27895 -58.4533,81.19825 -96.0883,103.31845 65.2873,22.9923 117.7518,42.4942 160.2344,60.2496 54.8017,-71.0211 127.3714,-184.31638 157.9489,-281.16287 49.754,-157.57312 11.4083,-437.15803 -196.1512,-544.84953 -45.4035,-23.55611 -92.6079,-34.64972 -139.3633,-35.21434 z m -1091.8063,75.82483 c -26.6021,-0.0529 -55.0757,5.02484 -85.4576,15.84841 h -0.011 c -131.7177,46.85559 -181.8984,273.01296 -135.4221,477.91607 25.6615,112.9284 70.9877,220.32149 138.5606,286.97709 13.9703,-11.0566 28.2239,-21.8226 42.4835,-31.7191 11.1134,-8.147 22.2312,-16.0098 33.0682,-23.5803 -85.2478,-42.4908 -141.4054,-174.33778 -126.581,-302.11194 15.3955,-133.01053 102.0667,-211.59528 193.5869,-175.21323 91.5205,36.38206 153.098,174.05161 137.7022,307.06214 -1.9905,17.46065 -5.1228,34.0512 -9.3987,49.47958 27.0805,-14.26184 51.5975,-25.60966 74.4089,-34.63459 5.7073,-2.32569 11.1158,-4.66711 16.5341,-6.41072 8.5523,-66.94407 7.4141,-139.99962 -6.8455,-213.05874 C 2062.576,484.46015 1973.533,334.79989 1829.8821,334.53743 Z M 3214.7138,1580.6858 v 0.01 c 0,0 0.01,0 0.011,-0.01 z m 0,0.01 c -31.3641,16.5885 -86.1061,39.8719 -169.6387,105.9385 -60.7229,48.3174 -173.0528,148.7342 -259.1546,209.5635 -56.221,39.7346 -117.7559,74.0858 -178.2903,100.9883 -87.1189,38.7281 -172.1658,62.0271 -236.26,63.7448 -229.7615,12.4031 -339.055,-45.6867 -443.8111,-157.135 -43.9392,-46.7466 -77.2222,-97.9624 -132.6516,-160.4519 -24.5567,-27.6842 -58.537,-64.4651 -93.1839,-89.7389 -0.9408,30.716 -97.4027,686.2981 -227.2237,976.1124 -129.8212,289.8148 -123.4567,191.3428 -210.7007,494.2717 -121.1629,112.2362 -253.9886,413.7817 -341.44031,673.3482 -90.21498,304.7325 -158.56904,539.7034 -164.21467,881.0442 -45.08832,-91.7414 -77.51867,-190.4375 -90.26287,-297.7917 -44.90975,-376.9828 52.85092,-826.6278 344.70135,-1150.3222 12.3552,-13.7043 12.1035,-19.3077 6.6226,-18.9534 -4.2629,0.2751 -11.6912,4.1534 -18.8029,10.6307 -364.48492,331.9859 -451.14861,944.3209 -413.66399,1217.9133 26.79775,195.5998 76.78757,364.3663 178.49105,501.5744 0.0233,0.3413 0.0244,0.6732 0.0502,1.0146 1.71833,2.0002 3.46989,3.9501 5.20662,5.9257 26.70005,35.129 56.81327,68.1894 90.95969,99.0205 h 0.006 v 0.01 l 0.006,0.01 c 59.53659,67.1044 133.86726,140.3487 285.25453,257.8055 278.5982,216.1524 473.8405,330.2798 512.2608,470.8476 51.1413,187.1162 -63.4927,310.8547 -206.4306,386.9396 104.5114,106.7493 438.1425,325.4467 1046.5243,298.115 535.7854,-24.0689 871.7784,-231.0735 1158.5892,-588.2361 1.8324,-82.1869 10.6406,-219.7176 14.6275,-368.1758 3.8052,-141.7788 4.612,-283.76 25.8659,-393.8743 5.0042,-25.9151 14.5803,-50.4632 23.151,-72.0453 34.8706,-87.8098 128.5145,-147.7279 218.349,-152.4246 0.1011,-0.8204 0.2025,-1.6346 0.3066,-2.4472 11.6025,-90.5811 62.5689,-163.2592 165.6975,-196.0453 0.01,-0.1264 0.019,-0.2526 0.028,-0.379 7.4144,-2.1948 15.5087,-4.3723 24.2381,-6.5167 62.1734,-15.9966 156.6823,-29.1713 274.5737,-33.2019 0.096,0 0.1664,-0.019 0.262,-0.022 0,0 0,1e-4 0.01,0 50.229,-1.7104 102.9444,-1.7933 155.6633,0.2509 5.5971,0.2173 10.9343,1.1164 16.5285,1.3825 152.3908,7.2384 302.8677,32.1081 390.8641,88.295 -27.0418,-24.0991 -60.1477,-45.3627 -95.4026,-62.5853 -142.2236,-69.4779 -337.0183,-92.85 -535.5679,-99.1487 53.0593,-143.7904 107.9001,-350.0423 102.0865,-504.3282 -15.2605,-404.9519 -212.4369,-716.8754 -493.4523,-933.8462 -6.9822,-5.3901 -13.7852,-9.4794 -16.4226,-9.8836 -2.6373,-0.4048 -1.115,2.8786 8.5681,12.2361 325.4317,314.48 434.2137,672.647 407.0971,1020.1846 -10.5832,135.6386 -68.2407,289.388 -134.2236,413.6249 -30.9197,-0.053 -67.3895,1.5886 -98.5857,2.1574 15.7672,-425.6698 -66.2088,-782.795 -298.6279,-1280.0026 -22.2394,-43.0739 -128.6117,-225.761 -192.1096,-277.322 -49.6218,-247.836 -56.1598,-235.6759 -155.4348,-462.5582 -150.5594,-344.0791 -205.1222,-741.7887 -251.0269,-975.5047 z"
       transform="matrix(0.32847095,0,0,0.32847095,329.15308,312.68004)" />
  </g>
  <g
     transform="translate(146.93048,332.54962)"
     id="layer1"
     inkscape:groupmode="layer"
     inkscape:label="F.Mask">
    <path
       inkscape:connector-curvature="0"
       id="path3218"
       style="fill:#fcc624;fill-rule:evenodd;stroke-width:1.28813"
       d="m 102.98672,1725.4135 c -47.943746,23.5152 -158.34296,23.037 -185.124307,69.8783 -29.402463,51.523 -10.393399,108.593 -10.113144,174.3618 0.0945,46.5523 -0.655513,98.3657 -19.850349,153.5219 -15.73226,45.4075 -21.06959,61.4661 1.49688,101.4247 22.566729,40.0542 120.5123521,59.2683 253.01169,91.5791 132.59221,32.216 90.36064,8.4123 238.78004,67.5835 91.95278,36.7063 221.73623,81.7325 305.82394,14.7216 30.99468,-24.7593 81.83965,-80.7746 84.93122,-135.3586 1.77933,-31.1637 -1.03146,-64.43 -8.33383,-84.6 -24.25312,-67.3014 -72.7578,-96.0733 -118.82667,-166.4294 -84.37013,-130.6765 -173.98215,-254.5637 -245.61628,-363.3485 -50.56477,-76.9515 -91.20421,-95.5931 -125.57063,-89.4753 -105.62494,19.0225 -71.53928,117.5779 -170.61053,166.1409 v 0 0 h 10e-4 z" />
    <path
       id="path3220"
       style="fill:#fcc624;fill-rule:evenodd;stroke-width:1.28813"
       d="m 1474.7922,1605.3555 c -10.5565,0.8196 -20.1719,3.4087 -28.3047,8.7983 v 0.01 c -46.524,33.5542 -36.4479,134.1219 -39.1776,187.0972 -4.1442,81.0509 -4.71,171.4279 -7.4396,207.3855 -4.5214,59.5131 -48.6912,193.925 -43.3214,257.3811 5.2745,63.3605 9.7942,100.4714 48.4081,136.8141 38.707,36.3428 106.7995,63.4555 190.9022,51.0522 84.1033,-12.4038 115.9346,-65.7624 170.4673,-107.4877 54.4349,-41.7272 110.4731,-91.2422 182.4262,-138.3541 71.9524,-47.2071 187.7969,-124.5099 204.4667,-145.3725 16.6698,-20.9595 27.9701,-39.0332 15.9157,-66.532 -11.9613,-27.4984 -53.963,-69.994 -99.8301,-108.6449 -119.6079,-100.9525 -67.9713,-194.7924 -117.9138,-244.4007 -15.2364,-16.7589 -26.5584,-25.9964 -44.2423,-29.6725 -32.547,-6.7666 -57.0468,-6.7753 -77.4233,-4.0723 -17.6223,34.1856 -40.3724,79.1225 -74.4752,118.1793 -54.9456,62.9292 -148.0242,104.6489 -209.4876,75.4219 -53.2801,-25.3364 -73.082,-131.771 -70.9706,-197.5984 z" />
    <path
       id="path3222"
       style="fill:#fcc624;fill-rule:evenodd;stroke-width:1.28813"
       d="m 946.55883,278.74494 c -5.33394,-0.0935 -10.80978,0.0779 -16.48697,0.542 -20.88685,1.70748 -41.44709,6.28777 -59.12901,13.29542 v 0.0952 c -33.26918,14.2861 -65.46466,36.25651 -91.89057,55.15193 -23.23791,16.54936 -47.03937,38.54801 -60.8136,61.12487 -8.16379,13.35871 -21.08551,40.92137 -9.03085,56.76874 0.0341,0.0435 30.7887,16.12537 61.66138,34.76294 49.91146,30.12959 106.924,45.69205 157.8275,42.79766 40.48727,-2.30182 85.67939,-15.35621 118.31109,-31.39009 32.8425,-16.13821 73.2241,-41.58926 112.5854,-72.59471 6.0916,-4.59219 17.6941,-16.22433 24.9484,-19.73349 6.3967,-3.09367 27.0175,-1.29815 26.0708,5.8503 -0.7415,5.59748 -24.9578,15.58713 -33.6863,22.20543 -43.0582,32.64715 -90.9952,64.6234 -122.1527,79.28362 -32.191,15.14606 -86.36819,32.63339 -122.98584,34.83983 -33.45322,2.01494 -61.86149,-1.77381 -90.94208,-11.81227 -28.11547,-9.70537 -44.78116,-18.13226 -74.71692,-35.78281 -9.54504,-5.62763 -18.72304,-10.32575 -31.63911,-18.55795 1.07229,1.16745 0.67386,3.22716 1.8732,4.44585 14.13016,14.36713 30.47327,28.4492 44.72211,44.92721 16.38301,18.94716 31.39726,40.14079 45.34105,53.12676 25.63932,23.87813 49.99833,36.63863 85.58251,41.12223 68.72227,8.65925 120.10278,-10.79493 178.05718,-49.81433 27.268,-18.36556 65.028,-52.22671 86.8606,-68.96737 36.3555,-27.93238 46.7568,-25.73323 57.5323,-39.79287 11.1515,-14.63467 16.5855,-52.8972 13.3065,-70.97607 -2.623,-13.96678 -7.4021,-23.24287 -22.2073,-32.80916 -16.4925,-10.6172 -44.8837,-21.80889 -94.0769,-38.83522 l -0.091,-0.0952 c -25.1738,-9.39151 -51.1079,-18.85509 -73.4151,-27.54666 -43.6994,-17.32537 -74.07758,-30.97693 -111.41527,-31.63178 z M 734.48945,495.59157 c -0.003,-0.003 -0.003,-0.005 -0.006,-0.007 l -0.004,0.003 c 0.003,0.003 0.006,0.003 0.009,0.006 z m 238.8891,-187.61172 c 6.80851,0.14381 13.73065,1.46704 18.12214,4.98236 11.80521,9.37443 11.05651,16.73764 7.49643,20.65997 -3.74723,4.0173 -38.3231,-17.88734 -46.47447,-21.23676 v 0.004 c -1.52302,-1.61407 9.50838,-4.6489 20.8559,-4.40921 z m -81.72994,0.74525 c 3.96372,0.18559 7.26758,1.17622 8.77819,3.47171 h -0.004 c -1.68578,2.48827 -10.67951,6.79232 -16.86419,11.67126 -5.80894,4.49556 -10.40169,9.37424 -14.71267,10.33091 -2.8102,0.57489 -6.46438,-0.95671 -8.15009,-4.01737 -3.281,-6.02695 2.90388,-14.92355 10.86924,-17.9848 5.03647,-1.85359 13.47699,-3.78103 20.0832,-3.47171 z" />
  </g>
  <g
     transform="translate(146.93048,332.54962)"
     id="g9"
     inkscape:groupmode="layer"
     inkscape:label="F.Cu">
    <path
       inkscape:connector-curvature="0"
       id="path7"
       style="fill:#fcc624;fill-rule:evenodd;stroke-width:1.28813"
       d="m 102.98672,1725.4135 c -47.943746,23.5152 -158.34296,23.037 -185.124307,69.8783 -29.402463,51.523 -10.393399,108.593 -10.113144,174.3618 0.0945,46.5523 -0.655513,98.3657 -19.850349,153.5219 -15.73226,45.4075 -21.06959,61.4661 1.49688,101.4247 22.566729,40.0542 120.5123521,59.2683 253.01169,91.5791 132.59221,32.216 90.36064,8.4123 238.78004,67.5835 91.95278,36.7063 221.73623,81.7325 305.82394,14.7216 30.99468,-24.7593 81.83965,-80.7746 84.93122,-135.3586 1.77933,-31.1637 -1.03146,-64.43 -8.33383,-84.6 -24.25312,-67.3014 -72.7578,-96.0733 -118.82667,-166.4294 -84.37013,-130.6765 -173.98215,-254.5637 -245.61628,-363.3485 -50.56477,-76.9515 -91.20421,-95.5931 -125.57063,-89.4753 -105.62494,19.0225 -71.53928,117.5779 -170.61053,166.1409 v 0 0 h 10e-4 z" />
    <path
       id="path8"
       style="fill:#fcc624;fill-rule:evenodd;stroke-width:1.28813"
       d="m 1474.7922,1605.3555 c -10.5565,0.8196 -20.1719,3.4087 -28.3047,8.7983 v 0.01 c -46.524,33.5542 -36.4479,134.1219 -39.1776,187.0972 -4.1442,81.0509 -4.71,171.4279 -7.4396,207.3855 -4.5214,59.5131 -48.6912,193.925 -43.3214,257.3811 5.2745,63.3605 9.7942,100.4714 48.4081,136.8141 38.707,36.3428 106.7995,63.4555 190.9022,51.0522 84.1033,-12.4038 115.9346,-65.7624 170.4673,-107.4877 54.4349,-41.7272 110.4731,-91.2422 182.4262,-138.3541 71.9524,-47.2071 187.7969,-124.5099 204.4667,-145.3725 16.6698,-20.9595 27.9701,-39.0332 15.9157,-66.532 -11.9613,-27.4984 -53.963,-69.994 -99.8301,-108.6449 -119.6079,-100.9525 -67.9713,-194.7924 -117.9138,-244.4007 -15.2364,-16.7589 -26.5584,-25.9964 -44.2423,-29.6725 -32.547,-6.7666 -57.0468,-6.7753 -77.4233,-4.0723 -17.6223,34.1856 -40.3724,79.1225 -74.4752,118.1793 -54.9456,62.9292 -148.0242,104.6489 -209.4876,75.4219 -53.2801,-25.3364 -73.082,-131.771 -70.9706,-197.5984 z" />
    <path
       id="path9"
       style="fill:#fcc624;fill-rule:evenodd;stroke-width:1.28813"
       d="m 946.55883,278.74494 c -5.33394,-0.0935 -10.80978,0.0779 -16.48697,0.542 -20.88685,1.70748 -41.44709,6.28777 -59.12901,13.29542 v 0.0952 c -33.26918,14.2861 -65.46466,36.25651 -91.89057,55.15193 -23.23791,16.54936 -47.03937,38.54801 -60.8136,61.12487 -8.16379,13.35871 -21.08551,40.92137 -9.03085,56.76874 0.0341,0.0435 30.7887,16.12537 61.66138,34.76294 49.91146,30.12959 106.924,45.69205 157.8275,42.79766 40.48727,-2.30182 85.67939,-15.35621 118.31109,-31.39009 32.8425,-16.13821 73.2241,-41.58926 112.5854,-72.59471 6.0916,-4.59219 17.6941,-16.22433 24.9484,-19.73349 6.3967,-3.09367 27.0175,-1.29815 26.0708,5.8503 -0.7415,5.59748 -24.9578,15.58713 -33.6863,22.20543 -43.0582,32.64715 -90.9952,64.6234 -122.1527,79.28362 -32.191,15.14606 -86.36819,32.63339 -122.98584,34.83983 -33.45322,2.01494 -61.86149,-1.77381 -90.94208,-11.81227 -28.11547,-9.70537 -44.78116,-18.13226 -74.71692,-35.78281 -9.54504,-5.62763 -18.72304,-10.32575 -31.63911,-18.55795 1.07229,1.16745 0.67386,3.22716 1.8732,4.44585 14.13016,14.36713 30.47327,28.4492 44.72211,44.92721 16.38301,18.94716 31.39726,40.14079 45.34105,53.12676 25.63932,23.87813 49.99833,36.63863 85.58251,41.12223 68.72227,8.65925 120.10278,-10.79493 178.05718,-49.81433 27.268,-18.36556 65.028,-52.22671 86.8606,-68.96737 36.3555,-27.93238 46.7568,-25.73323 57.5323,-39.79287 11.1515,-14.63467 16.5855,-52.8972 13.3065,-70.97607 -2.623,-13.96678 -7.4021,-23.24287 -22.2073,-32.80916 -16.4925,-10.6172 -44.8837,-21.80889 -94.0769,-38.83522 l -0.091,-0.0952 c -25.1738,-9.39151 -51.1079,-18.85509 -73.4151,-27.54666 -43.6994,-17.32537 -74.07758,-30.97693 -111.41527,-31.63178 z M 734.48945,495.59157 c -0.003,-0.003 -0.003,-0.005 -0.006,-0.007 l -0.004,0.003 c 0.003,0.003 0.006,0.003 0.009,0.006 z m 238.8891,-187.61172 c 6.80851,0.14381 13.73065,1.46704 18.12214,4.98236 11.80521,9.37443 11.05651,16.73764 7.49643,20.65997 -3.74723,4.0173 -38.3231,-17.88734 -46.47447,-21.23676 v 0.004 c -1.52302,-1.61407 9.50838,-4.6489 20.8559,-4.40921 z m -81.72994,0.74525 c 3.96372,0.18559 7.26758,1.17622 8.77819,3.47171 h -0.004 c -1.68578,2.48827 -10.67951,6.79232 -16.86419,11.67126 -5.80894,4.49556 -10.40169,9.37424 -14.71267,10.33091 -2.8102,0.57489 -6.46438,-0.95671 -8.15009,-4.01737 -3.281,-6.02695 2.90388,-14.92355 10.86924,-17.9848 5.03647,-1.85359 13.47699,-3.78103 20.0832,-3.47171 z" />
  </g>
  <g
     inkscape:groupmode="layer"
     id="layer4"
     inkscape:label="Drills">
    <circle
       style="fill:#ff0000;stroke:#000000;stroke-width:0.732027"
       id="path10"
       cx="1179.3868"
       cy="238.12738"
       r="133.22906" />
  </g>
</svg>
